<svg version="1.2" xmlns="http://www.w3.org/2000/svg" viewBox="0 0 45 45" width="45" height="45">
	<title>Chess_Adt45_Amazon</title>
	<style>
		.s0 { fill: #000000;stroke: #000000;stroke-linecap: round;stroke-linejoin: round;stroke-width: 1.1 } 
		.s1 { fill: #ffffff } 
		.s2 { fill: #000000;stroke: #ffffff;stroke-linecap: round;stroke-linejoin: round;stroke-width: 1.1 } 
	</style>
	<g id="Folder 1">
		<g id="g4">
			<path id="path1" fill-rule="evenodd" class="s0" d="m22.5 20.3c8 0.7 12.6 5.9 12.2 21.2h-17.5c0-6.6 7.6-4.7 6.1-15.3"/>
			<path fill-rule="evenodd" class="s1" d="m24.2 19.8l-0.3 1.1 0.3 0.1c2.4 0.8 4.3 1.9 6 5.1 1.7 3.2 2.5 7.8 2.1 15.3v0.4h1.7v-0.4c0.4-7.6-0.7-12.7-2.5-16.1-1.8-3.4-4.3-5-6.9-5.4z"/>
			<path id="path2" fill-rule="evenodd" class="s0" d="m24 26.2c0.3 2.1-4.2 5.4-6 6.6-2.3 1.4-2.2 3.1-3.8 2.9-0.8-0.7 1-2.2 0-2.2-0.8 0 0.1 0.9-0.8 1.4-0.8 0-3.1 0.8-3.1-2.9 0-1.4 4.6-8.8 4.6-8.8 0 0 1.5-1.4 1.5-2.5-0.5-0.8-0.3-1.5-0.3-2.2 0.7-0.8 2.2 1.8 2.2 1.8h1.6c0 0 0.6-1.5 1.9-2.2 0.7 0 0.7 2.2 0.7 2.2"/>
			<path id="path3" fill-rule="evenodd" class="s2" d="m13 31.7q0 0.1-0.1 0.2-0.1 0.1-0.3 0.1-0.1 0-0.2-0.1-0.1-0.1-0.2-0.2 0.1-0.2 0.2-0.3 0.1-0.1 0.2-0.1 0.2 0 0.3 0.1 0.1 0.1 0.1 0.3z"/>
			<path id="path4" fill-rule="evenodd" class="s2" d="m17.1 24.5q-0.2 0.4-0.5 0.6-0.2 0.2-0.4 0.2-0.1-0.1 0-0.4 0.1-0.4 0.3-0.8 0.2-0.3 0.5-0.6 0.2-0.2 0.4-0.1 0.1 0.1 0.1 0.4-0.1 0.3-0.4 0.7z"/>
		</g>
		<g id="g8">
			<path id="path1-3" class="s0" d="m12.6 16.8c6.2-1.1 15.4-1.1 19.7 0l1.9-9.1-5.5 8.3-0.2-10.2-3.8 9.9-2.2-10.5-2.2 10.5-3.8-9.9-0.2 10.2-5.5-8.3z"/>
			<path id="path2-7" class="s2" d="m12.6 16.8c0 1.4 1.1 1.4 1.8 2.9 0.8 1.1 0.8 0.7 0.4 2.5 5.7-0.7 10.6-0.5 15.3 0-0.3-1.8-0.3-1.4 0.4-2.5 0.7-1.5 1.8-1.5 1.8-2.9-6.2-1.1-13.5-1.1-19.7 0z"/>
			<path id="path3-1" class="s2" d="m14.4 19.7c2.6-0.8 13.6-0.8 16.1 0"/>
			<path id="circle4" fill-rule="evenodd" class="s0" d="m10.4 8.1c-0.8 0-1.5-0.7-1.5-1.5 0-0.8 0.7-1.4 1.5-1.4 0.8 0 1.5 0.6 1.5 1.4 0 0.8-0.7 1.5-1.5 1.5z"/>
			<path id="circle5" fill-rule="evenodd" class="s0" d="m16.3 5.9c-0.9 0-1.5-0.7-1.5-1.5 0-0.8 0.6-1.4 1.5-1.4 0.8 0 1.4 0.6 1.4 1.4 0 0.8-0.6 1.5-1.4 1.5z"/>
			<path id="circle6" fill-rule="evenodd" class="s0" d="m22.5 5.2c-0.8 0-1.5-0.7-1.5-1.5 0-0.8 0.7-1.4 1.5-1.4 0.8 0 1.4 0.6 1.4 1.4 0 0.8-0.6 1.5-1.4 1.5z"/>
			<path id="circle7" fill-rule="evenodd" class="s0" d="m28.7 5.9c-0.8 0-1.5-0.7-1.5-1.5 0-0.8 0.7-1.4 1.5-1.4 0.8 0 1.4 0.6 1.4 1.4 0 0.8-0.6 1.5-1.4 1.5z"/>
			<path id="circle8" fill-rule="evenodd" class="s0" d="m34.5 8.1c-0.8 0-1.4-0.7-1.4-1.5 0-0.8 0.6-1.4 1.4-1.4 0.8 0 1.5 0.6 1.5 1.4 0 0.8-0.7 1.5-1.5 1.5z"/>
		</g>
	</g>
</svg>