<svg version="1.2" xmlns="http://www.w3.org/2000/svg" viewBox="0 0 45 45" width="45" height="45">
	<title>Commoner_Transparent</title>
	<style>
		.s0 { fill: #ffffff;stroke: #000000;stroke-linejoin: round;stroke-width: 1.6 } 
		.s1 { fill: none;stroke: #000000;stroke-linecap: round;stroke-width: 1.6 } 
	</style>
	<g id="layer1">
		<g id="g4499">
			<g id="g4399">
				<path id="circle4395" fill-rule="evenodd" class="s0" d="m22.5 12.4c-1.5 0-2.7-1.2-2.7-2.7 0-1.5 1.2-2.7 2.7-2.7 1.5 0 2.7 1.2 2.7 2.7 0 1.5-1.2 2.7-2.7 2.7z"/>
				<path id="path4397" class="s0" d="m10.6 35.1c6 3.8 16.8 3.8 22.7 0v-7.5c0 0 9.8-4.9 6.5-11.9-5.9-7.6-28.6-7.6-34.6 0-3.2 7 5.4 11.3 5.4 11.3z"/>
			</g>
			<g id="g4407">
				<path id="path4401" class="s1" d="m10.6 27.6c6-3.3 16.8-3.3 22.7 0"/>
				<path id="path4403" class="s1" d="m10.6 31.3c6-3.2 16.8-3.2 22.7 0"/>
				<path id="path4405" class="s1" d="m10.6 35.1c6-3.2 16.8-3.2 22.7 0"/>
			</g>
		</g>
	</g>
</svg>