<svg version="1.2" xmlns="http://www.w3.org/2000/svg" viewBox="0 0 45 45" width="45" height="45">
	<style>
		.s0 { fill: #000000;stroke: #000000;stroke-linejoin: round;stroke-width: 1.5 } 
		.s1 { opacity: .75;fill: none;stroke: #000000;stroke-width: 1.5 } 
		.s2 { fill: #000000;stroke: #000000;stroke-linecap: round;stroke-width: 1.1 } 
		.s3 { fill: #000000;stroke: #000000;stroke-linecap: round;stroke-linejoin: round;stroke-width: 1.1 } 
		.s4 { fill: #ffffff;stroke: #ffffff;stroke-linecap: round;stroke-linejoin: round;stroke-width: 1.1 } 
		.s5 { fill: #000000;stroke: #ffffff;stroke-linecap: round;stroke-linejoin: round;stroke-width: 1.1 } 
		.s6 { fill: #000000;stroke: #ffffff;stroke-linecap: round;stroke-width: .8 } 
		.s7 { fill: #000000;stroke: #ffffff;stroke-linecap: round;stroke-linejoin: round;stroke-width: 1.5 } 
	</style>
	<path fill-rule="evenodd" class="s0" d="m36 36c-3.4-1-10.1 0.4-13.5-2-3.4 2.4-10.1 1-13.5 2 0 0-1.6 0.5-3 2 0.7 1 1.6 1 3 0.5 3.4-1 10.1 0.5 13.5-1 3.4 1.5 10.1 0 13.5 1 1.4 0.5 2.3 0.5 3-0.5-1.4-1.9-3-2-3-2z"/>
	<path fill-rule="evenodd" class="s0" d="m30 32c-2.5 2.5-12.5 2.5-15 0-0.5-1.5 0-2 0-2h15c0 0 0.5 0.5 0 2z"/>
	<path fill-rule="evenodd" class="s1" d="m30 30h-15"/>
	<path fill-rule="evenodd" class="s2" d="m20.3 7.6c8.1 0.8 10.5 6.2 10.1 22.3l-15.8-0.1c0.1-6.9 8-5 6.5-16.1"/>
	<path fill-rule="evenodd" class="s3" d="m21.9 13.7c0.3 2.3-4.3 5.7-6.1 6.9-2.3 1.6-2.2 3.4-3.9 3.1-0.8-0.7 1.1-2.3 0-2.3-0.7 0 0.2 0.9-0.7 1.5-0.8 0-3.1 0.8-3.1-3 0-1.6 4.6-9.2 4.6-9.2 0 0 1.4-1.5 1.5-2.7-0.5-0.8-0.4-1.5-0.4-2.3 0.8-0.8 2.3 1.9 2.3 1.9h1.6c0 0 0.6-1.5 1.9-2.3 0.7 0 0.7 2.3 0.7 2.3"/>
	<path class="s4" d="m10.8 19.5q0 0.1-0.1 0.3-0.1 0.1-0.3 0.1-0.2 0-0.3-0.1-0.1-0.2-0.1-0.3 0-0.2 0.1-0.3 0.1-0.1 0.3-0.1 0.2 0 0.3 0.1 0.1 0.1 0.1 0.3z"/>
	<path class="s5" d="m14.9 12c-0.1 0.3-0.3 0.5-0.5 0.7q-0.2 0.2-0.4 0.1-0.1-0.1 0-0.4c0-0.2 0.1-0.5 0.3-0.8 0.1-0.2 0.3-0.5 0.5-0.6q0.2-0.2 0.4-0.2 0.1 0.1 0 0.5c0 0.2-0.1 0.5-0.3 0.7z"/>
	<path fill-rule="evenodd" class="s6" d="m30.4 28.8c0.1-15.4-2.8-19.5-7.8-20.7"/>
	<path class="s7" d="m14.9 30.1l15.3-0.1"/>
</svg>