<svg width="45" height="45" xmlns="http://www.w3.org/2000/svg"><g transform="translate(.176 -.823)scale(1.01404)"><path d="M22 10c10.5 1 16.5 8 16 29H15c0-9 10-6.5 8-21" style="fill:#fff;fill-opacity:1;fill-rule:evenodd;stroke:#303042;stroke-width:1.5;stroke-linecap:round;stroke-linejoin:miter;stroke-miterlimit:4;stroke-dasharray:none;stroke-opacity:1"/><path d="M24 18c.384 2.911-5.553 7.369-8 9-3 2-2.82 4.343-5 4-1.042-.944 1.413-3.038 0-3-1 0 .187 1.232-1 2-1 0-4.003 1-4-4 0-2 6-12 6-12s1.886-1.902 2-3.5c-.726-.994-.5-2-.5-3 1-1 3 2.5 3 2.5h2s.782-1.992 2.5-3c1 0 1 3 1 3" style="fill:#fff;fill-opacity:1;fill-rule:evenodd;stroke:#303042;stroke-width:1.5;stroke-linecap:round;stroke-linejoin:round;stroke-miterlimit:4;stroke-dasharray:none;stroke-opacity:1"/><circle r=".5" cy="23.5" cx="8.5" transform="translate(.5 2)" style="opacity:1;fill:#2b2b3c;fill-opacity:1;stroke:#303042;stroke-width:1.5;stroke-linecap:round;stroke-linejoin:round;stroke-miterlimit:4;stroke-dasharray:none;stroke-opacity:1"/><ellipse ry="1.5" rx=".5" cy="15.5" cx="14.5" transform="rotate(30 14.5 15.5)" style="opacity:1;fill:#2b2b3c;fill-opacity:1;stroke:#303042;stroke-width:1.50000048;stroke-linecap:round;stroke-linejoin:round;stroke-miterlimit:4;stroke-dasharray:none;stroke-opacity:1"/><path d="M37 39c1-20-5.5-27.5-12-28.5" style="fill:none;fill-opacity:.75;fill-rule:evenodd;stroke:#303042;stroke-width:1;stroke-linecap:round;stroke-linejoin:miter;stroke-miterlimit:4;stroke-dasharray:none;stroke-opacity:1"/><path d="M13.57 17.51c-.902-.34-.85-1.578.128-3.02.259-.382.64-.75.928-.9.27-.14.79-.126 1.037.026.597.37.53 1.445-.164 2.606-.56.938-1.388 1.49-1.928 1.288" style="fill:#000"/><path d="M8.61 26.65a1.212 1.212 0 0 1-.522-1.95c.248-.282.512-.395.921-.395.696 0 1.187.491 1.187 1.187 0 .568-.28.969-.806 1.154-.33.116-.464.117-.78.005" style="fill:#000"/><path d="M14.26 39.164c.006-2.175.467-3.805 1.526-5.389.517-.774 1.07-1.386 2.88-3.191 1.578-1.573 2.242-2.445 2.839-3.729.474-1.02.805-2.285.935-3.579.035-.342.053-.633.04-.645s-.144.109-.293.27c-.378.41-1.895 1.776-2.679 2.411-.88.714-1.5 1.18-2.665 2-1.483 1.043-1.861 1.41-2.96 2.868-.863 1.145-1.394 1.5-2.32 1.548-.328.018-.628 0-.765-.045-.26-.086-.64-.5-.697-.759l-.04-.178-.885.038c-.714.03-.965.017-1.293-.066-1.217-.311-2.017-1.172-2.369-2.547-.16-.629-.277-1.862-.224-2.365.09-.841.576-2.044 1.817-4.501.897-1.778 1.994-3.783 3.341-6.11.63-1.087 1.004-1.653 1.486-2.25.641-.792 1.262-1.864 1.262-2.179 0-.073-.067-.284-.148-.47-.23-.52-.29-.92-.29-1.934 0-1.096.052-1.278.44-1.535.387-.256.927-.28 1.402-.062.552.252 1.412 1.135 2.063 2.118l.238.36h.585c.322 0 .585-.025.585-.054s.195-.348.433-.709c.487-.737 1.21-1.494 1.816-1.902.339-.228.455-.273.706-.273.84 0 1.346.713 1.578 2.226.058.374.114.712.125.75s.183.09.384.114c1.11.134 2.784.533 3.958.943.856.298 2.376 1.044 3.125 1.531 2.83 1.844 4.892 4.613 6.323 8.492 1.241 3.365 1.95 7.616 2.178 13.069.068 1.624.082 5.71.021 6.078l-.039.234H14.26zm22.342-2.75a67 67 0 0 0-.187-6.457c-.55-6.51-2.183-11.575-4.792-14.851-1.743-2.19-4.67-3.641-8.552-4.238a29 29 0 0 0-1.076-.15c-.485-.044-.736-.38-.737-.99 0-.429-.165-1.515-.255-1.683-.066-.124-.09-.11-.472.268a6.8 6.8 0 0 0-1.234 1.725c-.333.665-.345.67-1.723.691-1.469.023-1.426.042-2.063-.91-.485-.722-1.146-1.514-1.265-1.514-.046 0-.057.174-.034.54.029.461.067.605.267.999.218.43.232.488.202.882-.062.84-.628 1.942-1.628 3.173-1.263 1.553-5.291 8.993-6.077 11.22l-.23.655.035.812c.064 1.474.447 2.317 1.194 2.629.307.127 1.609.146 1.755.025.064-.053.09-.208.091-.521 0-.593.095-.903.35-1.142.338-.32 1.016-.401 1.462-.176.373.189.608.666.534 1.08-.023.126-.18.545-.35.929-.329.744-.374.933-.21.87a.6.6 0 0 1 .158-.038c.111 0 .622-.52.976-.993 1.019-1.363 1.688-2.034 2.824-2.832 3.491-2.45 5.783-4.507 6.94-6.23.467-.693.707-1.286.736-1.82.032-.57.105-.777.335-.94.374-.267.84-.128 1.077.32.22.414.048 1.428-.397 2.35-.242.5-.248.53-.248 1.188 0 2.5-.42 4.632-1.25 6.36-.668 1.392-1.326 2.228-3.442 4.378-.948.963-1.892 1.978-2.098 2.256a7.3 7.3 0 0 0-1.37 3.275c-.049.327-.09.616-.09.641s4.68.047 10.4.047h10.399z" style="fill:#000"/><path d="M29.125 38.5c4.417-3.861 4.731-1.256 8.75-2.375l-.25-1.5c-5.398.236-8.685 1.264-12.375 4.125z" style="fill:#000;fill-opacity:1;stroke:#000;stroke-width:1px;stroke-linecap:butt;stroke-linejoin:miter;stroke-opacity:1"/><path d="M20.25 38.625c5.095-5.317 8.412-6.61 17.25-7.25l-.125-1.25C32.618 30.248 22.48 31.909 17.5 39Z" style="fill:#000;fill-opacity:1;stroke:#000;stroke-width:1px;stroke-linecap:butt;stroke-linejoin:miter;stroke-opacity:1"/><path d="M23.5 24.25c4.512-.034 7.79-1.723 12.5-2.25-.375-1.171-.375-2.317-.75-1.875-2.716 2.057-6.746 1.938-11.875 3-.383-.498.206.112.125 1.125z" style="fill:#000;fill-opacity:1;stroke:#000;stroke-width:1px;stroke-linecap:butt;stroke-linejoin:miter;stroke-opacity:1"/><path d="M24 20c3.75-1.875 8.083-1.667 9.5-3.25l-1.125-1.375c-.95 2.434-5.73 2.432-8 3.875z" style="fill:#000;fill-opacity:1;stroke:#000;stroke-width:1px;stroke-linecap:butt;stroke-linejoin:miter;stroke-opacity:1"/><path d="M30.625 13.25 27 14.625l2-2.75z" style="fill:#000;fill-opacity:1;stroke:#000;stroke-width:1px;stroke-linecap:butt;stroke-linejoin:miter;stroke-opacity:1"/><path d="m25.25 10.375-1.375 2.75-.75-3c4.612.626 1.36.216 2.125.25z" style="fill:#000;fill-opacity:1;stroke:#000;stroke-width:1px;stroke-linecap:butt;stroke-linejoin:miter;stroke-opacity:1"/><path d="M36.75 25.25c-4.369 1.215-8.595 2.571-14.25 2.5l-4.375 4.75c4.074-2.615 8.928-4.983 19.25-5.625z" style="fill:#000;fill-opacity:1;stroke:#000;stroke-width:1px;stroke-linecap:butt;stroke-linejoin:miter;stroke-opacity:1"/></g></svg>