<?xml version="1.0" encoding="UTF-8" standalone="no"?>
<!-- Created with Inkscape (http://www.inkscape.org/) -->

<svg
   width="11.90625mm"
   height="11.90625mm"
   viewBox="0 0 11.90625 11.90625"
   version="1.1"
   id="svg1"
   xml:space="preserve"
   inkscape:export-filename="ddt45.svg"
   inkscape:export-xdpi="33.75"
   inkscape:export-ydpi="33.75"
   xmlns:inkscape="http://www.inkscape.org/namespaces/inkscape"
   xmlns:sodipodi="http://sodipodi.sourceforge.net/DTD/sodipodi-0.dtd"
   xmlns="http://www.w3.org/2000/svg"
   xmlns:svg="http://www.w3.org/2000/svg"><sodipodi:namedview
     id="namedview1"
     pagecolor="#ffffff"
     bordercolor="#cccccc"
     borderopacity="1"
     inkscape:showpageshadow="0"
     inkscape:pageopacity="1"
     inkscape:pagecheckerboard="0"
     inkscape:deskcolor="#d1d1d1"
     inkscape:document-units="mm"
     showgrid="false"
     inkscape:export-bgcolor="#ffce9e00"><inkscape:page
       x="0"
       y="0"
       width="11.90625"
       height="11.90625"
       id="page2"
       margin="0"
       bleed="0" /></sodipodi:namedview><defs
     id="defs1" /><g
     inkscape:label="Layer 1"
     inkscape:groupmode="layer"
     id="layer1"
     transform="translate(-2.2584741,-1.4162635)"><g
       fill="#ffffff"
       stroke="#000000"
       stroke-width="1.5"
       stroke-linejoin="round"
       id="g2"
       transform="matrix(0.26458334,0,0,0.26458334,2.2584744,1.4162637)"><!-- test --><path
         d="m 11,20 v -5 h 6 v 2 h 11 v -2 h 6 v 5 l -3,2 v 9.5 l 2,1.5 v 3 H 12 v -3 l 2,-1.5 V 22 Z"
         id="path1" /><!-- talp --><path
         d="M 9,39 H 36 V 36 H 9 Z"
         id="path2" /></g><g
       fill="none"
       stroke="#000000"
       stroke-linecap="round"
       id="g5"
       transform="matrix(0.26458334,0,0,0.26458334,2.2584744,1.4162637)"><line
         stroke-width="1.2"
         x1="11"
         y1="20"
         x2="34"
         y2="20"
         id="line2" /><line
         stroke-width="0.8"
         x1="14"
         y1="22"
         x2="31"
         y2="22"
         id="line3" /><line
         stroke-width="0.8"
         x1="14"
         y1="31.5"
         x2="31"
         y2="31.5"
         id="line4" /><line
         stroke-width="1.2"
         x1="12"
         y1="33"
         x2="33"
         y2="33"
         id="line5" /></g></g></svg>
