<svg width="45" height="45" xmlns="http://www.w3.org/2000/svg"><g transform="translate(.482 -.5)"><path d="M22 10c10.5 1 16.5 8 16 29H15c0-9 10-6.5 8-21" style="fill:#2b2b3c;fill-opacity:1;fill-rule:evenodd;stroke:#303042;stroke-width:1px;stroke-linecap:round;stroke-linejoin:miter;stroke-opacity:1"/><path d="M24 18c.384 2.911-5.553 7.369-8 9-3 2-2.82 4.343-5 4-1.042-.944 1.413-3.038 0-3-1 0 .187 1.232-1 2-1 0-4.003 1-4-4 0-2 6-12 6-12s1.886-1.902 2-3.5c-.726-.994-.5-2-.5-3 1-1 3 2.5 3 2.5h2s.782-1.992 2.5-3c1 0 1 3 1 3" style="fill:#2b2b3c;fill-opacity:1;fill-rule:evenodd;stroke:#303042;stroke-width:1px;stroke-linecap:round;stroke-linejoin:round;stroke-opacity:1"/><circle r=".5" cy="23.5" cx="8.5" transform="translate(.5 2)" style="opacity:1;fill:#2b2b3c;fill-opacity:1;stroke:#fff;stroke-width:1;stroke-linecap:round;stroke-linejoin:round;stroke-miterlimit:4;stroke-dasharray:none;stroke-opacity:1"/><ellipse ry="1.5" rx=".5" cy="15.5" cx="14.5" transform="rotate(30 14.5 15.5)" style="opacity:1;fill:#2b2b3c;fill-opacity:1;stroke:#fff;stroke-width:1;stroke-linecap:round;stroke-linejoin:round;stroke-miterlimit:4;stroke-dasharray:none;stroke-opacity:1"/><path d="m24.55 10.4-.3 1.1.55.1c3.101.477 6.324 2.234 8.575 6.494S36.297 29.057 35.8 39l-.05.5h1.75V39c.503-10.057-.876-16.853-3.25-21.344s-5.789-6.633-9.187-7.156Z" style="fill:#fff;fill-opacity:1;fill-rule:evenodd;stroke:none;stroke-width:1;stroke-linecap:square;stroke-linejoin:miter;stroke-miterlimit:4;stroke-dasharray:none;stroke-opacity:1"/><path d="M14.568 38.46c.136-1.796.559-3.153 1.384-4.445.233-.364 1.313-1.579 2.399-2.699 1.994-2.056 2.893-3.226 3.454-4.494.447-1.01.8-2.508.89-3.78l.08-1.113-1.109 1.075c-1.509 1.463-2.577 2.35-4.42 3.673-1.7 1.22-2.545 2.007-3.666 3.418-.775.976-1.422 1.388-2.187 1.393-.575.004-.855-.176-1.012-.652l-.134-.407-1.032.041c-1.253.051-1.836-.109-2.462-.675-.62-.559-.992-1.445-1.135-2.698-.14-1.225-.027-1.826.634-3.372 1.153-2.698 4.86-9.36 5.972-10.734.361-.447.803-1.12.981-1.496.321-.679.322-.688.107-1.25-.12-.312-.247-1.077-.283-1.701-.065-1.124-.062-1.137.28-1.406.19-.15.502-.272.693-.272.5 0 1.32.673 2.101 1.724l.67.901h1.467l.27-.531c.15-.292.679-.94 1.177-1.438.781-.782.965-.906 1.346-.906.335 0 .515.089.753.371.304.363.582 1.3.586 1.979.003.508.127.617.81.713 6.883.968 11.353 4.977 13.519 12.125 1.123 3.707 1.627 7.688 1.755 13.843l.08 3.844h-1.001l.06-3.127c.125-6.497-.568-11.664-2.148-16.031-1.71-4.723-4.734-8.075-8.449-9.365-.532-.184-2.215-.602-2.429-.602-.083 0-.329 1.016-.268 1.113.036.06.33.148.653.196 2.436.366 5.129 1.936 6.703 3.91 3.062 3.836 4.213 8.694 4.212 17.781 0 2.028-.036 4.236-.08 4.906l-.081 1.22H14.489zm-4.88-12.276c.62-.62.181-1.693-.693-1.693-.514 0-1 .486-1 1s.486 1 1 1c.244 0 .5-.113.694-.307m4.663-9.016c.72-.43 1.52-1.843 1.52-2.688 0-.482-.46-.9-.874-.799-.471.116-1.091.779-1.507 1.61-.434.87-.474 1.47-.12 1.825.302.302.541.315.981.052" style="fill:#000"/><path d="M20 38c5-5 11.375-5.625 16.375-6.625l.125.75c-5 1-10.75 1.875-14.75 5.875Z" style="fill:#fff;fill-opacity:1;stroke:#fff;stroke-width:1px;stroke-linecap:butt;stroke-linejoin:miter;stroke-opacity:1"/><path d="M36.25 28.5c-5.547.614-12.711 1.06-18.25 5.25 2.125-2.625 2.823-2.542 3.625-3.875 4-1 9.188-2.068 14.375-2.875z" style="fill:#fff;fill-opacity:1;stroke:#fff;stroke-width:1px;stroke-linecap:butt;stroke-linejoin:miter;stroke-opacity:1"/><path d="M23.75 25.75c6.01-.943 8.145-1.984 11.25-2.75v-1c-3.366.835-6.665 2.155-11 2.5z" style="fill:#fff;fill-opacity:1;stroke:#fff;stroke-width:1px;stroke-linecap:butt;stroke-linejoin:miter;stroke-opacity:1"/><path d="M36.5 35.625c-3.847.338-5.611.87-7.875 2.375l3.125-.125c2.229-1.604 3.357-1.372 4.625-1.375z" style="fill:#fff;fill-opacity:1;stroke:#fff;stroke-width:1px;stroke-linecap:butt;stroke-linejoin:miter;stroke-opacity:1"/><path d="M33.125 17.75c-1.651 1.498-5.12 2.268-8.375 3.125l.125-.75c2.192-.758 2.842.157 7.5-3.375z" style="fill:#fff;fill-opacity:1;stroke:#fff;stroke-width:1px;stroke-linecap:butt;stroke-linejoin:miter;stroke-opacity:1"/><path d="m25.125 11.25-1.75 2.25.375-2.625z" style="fill:#fff;fill-opacity:1;stroke:#fff;stroke-width:1px;stroke-linecap:butt;stroke-linejoin:miter;stroke-opacity:1"/><path d="M30 13.375c-2.648 2.504-2.72 2.48-5.25 3.375 1.858-1.621 2.685-2.344 3.875-4.75z" style="fill:#fff;fill-opacity:1;stroke:#fff;stroke-width:1px;stroke-linecap:butt;stroke-linejoin:miter;stroke-opacity:1"/></g></svg>