<?xml version="1.0" encoding="UTF-8" standalone="no"?>
<!--
	Vágtató (fekete)
	Készült: a knight-b.svg felhasználásával
	Felhasználási feltételek: Nevezd meg! - Így add tovább! (Creative Commons)
	Uray M. János
	2013-2018
-->

<svg
   version="1.1"
   width="45"
   height="45"
   viewBox="0 0 15.820312 15.820312"
   id="svg11"
   sodipodi:docname="Chess Kdt45.svg"
   xml:space="preserve"
   inkscape:version="1.4 (86a8ad7, 2024-10-11)"
   xmlns:inkscape="http://www.inkscape.org/namespaces/inkscape"
   xmlns:sodipodi="http://sodipodi.sourceforge.net/DTD/sodipodi-0.dtd"
   xmlns:xlink="http://www.w3.org/1999/xlink"
   xmlns="http://www.w3.org/2000/svg"
   xmlns:svg="http://www.w3.org/2000/svg"><sodipodi:namedview
     id="namedview1"
     pagecolor="#ffffff"
     bordercolor="#cccccc"
     borderopacity="1"
     inkscape:showpageshadow="0"
     inkscape:pageopacity="1"
     inkscape:pagecheckerboard="0"
     inkscape:deskcolor="#d1d1d1"
     inkscape:zoom="4.391796"
     inkscape:cx="67.626092"
     inkscape:cy="75.25395"
     inkscape:window-width="1920"
     inkscape:window-height="991"
     inkscape:window-x="-9"
     inkscape:window-y="-9"
     inkscape:window-maximized="1"
     inkscape:current-layer="svg11" /><!-- alap --><g
     fill="#000000"
     stroke="#000000"
     stroke-width="1.5"
     stroke-linecap="round"
     stroke-linejoin="round"
     id="g2"
     transform="scale(0.35156249)"><!-- test --><path
       d="m 21.5,10 c 11,1 17,8 16.5,29 H 15 c 0,-9 10,-6.5 8,-21"
       id="path1" /><!-- fej --><path
       d="m 24,18 c 0.38,2.91 -5.55,7.37 -8,9 -3,2 -2.82,4.34 -5,4 -1.042,-0.94 1.41,-3.04 0,-3 -1,0 0.19,1.23 -1,2 -1,0 -4.003,1 -4,-4 0,-2 6,-12 6,-12 0,0 1.89,-1.9 2,-3.5 -0.5,-1 -0.5,-2.5 -2.5,-5 1.5,-1 5,4.5 5,4.5 h 2 C 19,8 19.5,6 19,4.5 20.5,4 21,7 21.5,10"
       id="path2" /></g><!-- sebességvonalak --><defs
     id="defs3"><linearGradient
       id="speed-grad"
       x1="0"
       y1="0"
       x2="1"
       y2="0"
       spreadMethod="pad"><stop
         offset="30%"
         stop-color="#000"
         stop-opacity="0.6"
         id="stop2" /><stop
         offset="100%"
         stop-color="#000"
         stop-opacity="0"
         id="stop3" /></linearGradient><linearGradient
       xlink:href="#speed-grad"
       id="linearGradient2"
       x1="15.491933"
       y1="23.2379"
       x2="19.364918"
       y2="23.2379"
       spreadMethod="pad"
       gradientTransform="scale(1.9364917,0.51639778)"
       gradientUnits="userSpaceOnUse" /><linearGradient
       xlink:href="#speed-grad"
       id="linearGradient3"
       x1="18.859806"
       y1="28.84441"
       x2="22.465359"
       y2="28.84441"
       spreadMethod="pad"
       gradientTransform="scale(1.8027756,0.5547002)"
       gradientUnits="userSpaceOnUse" /><linearGradient
       xlink:href="#speed-grad"
       id="linearGradient4"
       x1="20.784611"
       y1="34.641014"
       x2="24.248711"
       y2="34.641014"
       spreadMethod="pad"
       gradientTransform="scale(1.7320508,0.57735027)"
       gradientUnits="userSpaceOnUse" /><linearGradient
       xlink:href="#speed-grad"
       id="linearGradient5"
       x1="22.311838"
       y1="41.457809"
       x2="25.628464"
       y2="41.457809"
       spreadMethod="pad"
       gradientTransform="scale(1.6583124,0.60302269)"
       gradientUnits="userSpaceOnUse" /><linearGradient
       xlink:href="#speed-grad"
       id="linearGradient6"
       x1="24.03331"
       y1="47.434166"
       x2="27.195587"
       y2="47.434166"
       spreadMethod="pad"
       gradientTransform="scale(1.5811388,0.63245553)"
       gradientUnits="userSpaceOnUse" /><linearGradient
       xlink:href="#speed-grad"
       id="linearGradient7"
       x1="24.03331"
       y1="55.339859"
       x2="27.195587"
       y2="55.339859"
       spreadMethod="pad"
       gradientTransform="scale(1.5811388,0.63245553)"
       gradientUnits="userSpaceOnUse" /></defs><g
     id="g8"
     transform="scale(0.35156249)"><rect
       fill="url(#speed-grad)"
       x="30"
       y="12"
       width="7.5"
       height="2"
       id="rect3"
       style="fill:url(#linearGradient2)" /><rect
       fill="url(#speed-grad)"
       x="34"
       y="16"
       width="6.5"
       height="2"
       id="rect4"
       style="fill:url(#linearGradient3)" /><rect
       fill="url(#speed-grad)"
       x="36"
       y="20"
       width="6"
       height="2"
       id="rect5"
       style="fill:url(#linearGradient4)" /><rect
       fill="url(#speed-grad)"
       x="37"
       y="25"
       width="5.5"
       height="2"
       id="rect6"
       style="fill:url(#linearGradient5)" /><rect
       fill="url(#speed-grad)"
       x="38"
       y="30"
       width="5"
       height="2"
       id="rect7"
       style="fill:url(#linearGradient6)" /><rect
       fill="url(#speed-grad)"
       x="38"
       y="35"
       width="5"
       height="2"
       id="rect8"
       style="fill:url(#linearGradient7)" /></g><!-- vonalak --><g
     fill="#ffffff"
     stroke="#ffffff"
     stroke-width="1.5"
     stroke-linejoin="round"
     id="g10"
     transform="scale(0.35156249)"><!-- szemkötő --><path
       stroke="none"
       d="m 12.8,13 c -1,1 -2.8,4 -3.7,6 L 33,16 27,11 Z"
       id="path8" /><!-- hát --><path
       stroke="none"
       d="M 24.55,10.4 24.1,11.85 24.6,12 c 3.15,1 5.65,2.49 7.9,6.75 2.25,4.26 3.25,10.31 2.75,20.25 l -0.05,0.5 h 2.25 L 37.5,39 C 38,28.94 36.62,22.15 34.25,17.66 31.88,13.17 28.46,11.02 25.06,10.5 Z"
       id="path9" /><!-- orr --><path
       d="m 9.5,25.5 a 0.5,0.5 0 1 1 -1,0 0.5,0.5 0 1 1 1,0 z"
       id="path10" /></g><!-- szem --><g
     fill="#000000"
     stroke="#000000"
     stroke-width="1.5"
     stroke-linejoin="round"
     id="g11"
     transform="scale(0.35156249)"><path
       d="m 15.8,14.75 a 0.50027797,1.5008337 60 1 1 -2.6,1.5 0.50027797,1.5008337 60 1 1 2.6,-1.5 z"
       id="path11" /></g></svg>
