<?xml version="1.0" encoding="UTF-8" standalone="no"?>
<!-- Created with Inkscape (http://www.inkscape.org/) -->

<svg
   width="512"
   height="512"
   viewBox="0 0 512 512"
   version="1.1"
   id="svg5"
   inkscape:export-filename="/home/reinhard/Rastergrafik.png"
   inkscape:export-xdpi="96"
   inkscape:export-ydpi="96"
   inkscape:version="1.1.1 (3bf5ae0d25, 2021-09-20)"
   sodipodi:docname="Zeichnung.svg"
   xmlns:inkscape="http://www.inkscape.org/namespaces/inkscape"
   xmlns:sodipodi="http://sodipodi.sourceforge.net/DTD/sodipodi-0.dtd"
   xmlns="http://www.w3.org/2000/svg"
   xmlns:svg="http://www.w3.org/2000/svg">
  <sodipodi:namedview
     id="namedview7"
     pagecolor="#ffffff"
     bordercolor="#666666"
     borderopacity="1.0"
     inkscape:pageshadow="2"
     inkscape:pageopacity="0.0"
     inkscape:pagecheckerboard="true"
     inkscape:document-units="px"
     showgrid="true"
     inkscape:zoom="1.4142136"
     inkscape:cx="310.41988"
     inkscape:cy="120.20815"
     inkscape:window-width="1920"
     inkscape:window-height="1011"
     inkscape:window-x="0"
     inkscape:window-y="0"
     inkscape:window-maximized="1"
     inkscape:current-layer="layer4"
     inkscape:snap-global="true">
    <inkscape:grid
       type="xygrid"
       id="grid824"
       empspacing="32" />
  </sodipodi:namedview>
  <defs
     id="defs2" />
  <g
     inkscape:groupmode="layer"
     id="layer5"
     inkscape:label="Ebene 5"
     style="display:none;opacity:1">
    <rect
       style="display:inline;fill:#4b3f32;fill-opacity:1;stroke:none;stroke-width:4.34313;stroke-opacity:1"
       id="rect1430-5"
       width="192"
       height="192"
       x="64"
       y="160" />
    <rect
       style="display:inline;fill:#4b3f32;fill-opacity:1;stroke:none;stroke-width:4.34315;stroke-opacity:1"
       id="rect1430-3-5"
       width="192"
       height="192"
       x="-128"
       y="-32" />
    <rect
       style="display:inline;fill:#4b3f32;fill-opacity:1;stroke:none;stroke-width:4.34313;stroke-opacity:1"
       id="rect5605-4"
       width="192"
       height="192"
       x="-128"
       y="352" />
    <rect
       style="display:inline;fill:#4b3f32;fill-opacity:1;stroke:none;stroke-width:4.34315;stroke-opacity:1"
       id="rect5609-7"
       width="192"
       height="192"
       x="256"
       y="-32" />
    <rect
       style="display:inline;fill:#4b3f32;fill-opacity:1;stroke:none;stroke-width:4.34315;stroke-opacity:1"
       id="rect5611-6"
       width="192"
       height="192"
       x="256"
       y="352" />
    <rect
       style="display:inline;fill:#4b3f32;fill-opacity:1;stroke:none;stroke-width:4.34315;stroke-opacity:1"
       id="rect5613-5"
       width="192"
       height="192"
       x="448"
       y="160"
       inkscape:transform-center-x="-37.350515"
       inkscape:transform-center-y="-81.78866" />
    <rect
       style="display:inline;fill:#edddbf;fill-opacity:1;stroke:none;stroke-width:4.34315;stroke-opacity:1"
       id="rect100012-6"
       width="192"
       height="192"
       x="64"
       y="-32" />
    <rect
       style="display:inline;fill:#edddbf;fill-opacity:1;stroke:none;stroke-width:4.34315;stroke-opacity:1"
       id="rect100032-9"
       width="192"
       height="192"
       x="448"
       y="-32" />
    <rect
       style="display:inline;fill:#edddbf;fill-opacity:1;stroke:none;stroke-width:4.34315;stroke-opacity:1"
       id="rect100034-3"
       width="192"
       height="192"
       x="-128"
       y="160" />
    <rect
       style="display:inline;fill:#edddbf;fill-opacity:1;stroke:none;stroke-width:4.34315;stroke-opacity:1"
       id="rect100036-7"
       width="192"
       height="192"
       x="448"
       y="352" />
    <rect
       style="display:inline;fill:#edddbf;fill-opacity:1;stroke:none;stroke-width:4.34315;stroke-opacity:1"
       id="rect100038-4"
       width="192"
       height="192"
       x="64"
       y="352" />
    <rect
       style="display:inline;fill:#edddbf;fill-opacity:1;stroke:none;stroke-width:4.34315;stroke-opacity:1"
       id="rect100040-5"
       width="192"
       height="192"
       x="256"
       y="160" />
  </g>
  <g
     inkscape:label="Ebene 1"
     inkscape:groupmode="layer"
     id="layer1"
     style="display:inline;mix-blend-mode:normal">
    <rect
       style="fill:#4b3f32;fill-opacity:1;stroke:none;stroke-width:3.54617;stroke-opacity:1"
       id="rect5609"
       width="256"
       height="96"
       x="1.4210855e-14"
       y="0" />
    <rect
       style="fill:#4b3f32;fill-opacity:1;stroke:none;stroke-width:3.54617;stroke-opacity:1"
       id="rect5611"
       width="256"
       height="96"
       x="1.4210855e-14"
       y="416" />
    <rect
       style="fill:#4b3f32;fill-opacity:1;stroke:none;stroke-width:6.47438;stroke-opacity:1"
       id="rect5613"
       width="256"
       height="320"
       x="256"
       y="96"
       inkscape:transform-center-x="-49.800686"
       inkscape:transform-center-y="-136.31443" />
    <text
       xml:space="preserve"
       style="font-size:34.0157px;line-height:1.25;font-family:'URW Gothic';-inkscape-font-specification:'URW Gothic';fill:none;fill-opacity:1;stroke:none;stroke-opacity:1"
       x="96"
       y="192"
       id="text24226"><tspan
         sodipodi:role="line"
         id="tspan24224"
         x="96"
         y="192">G</tspan></text>
    <rect
       style="fill:#edddbf;fill-opacity:1;stroke:none;stroke-width:3.54617;stroke-opacity:1"
       id="rect100032"
       width="256"
       height="96"
       x="256"
       y="0" />
    <rect
       style="fill:#edddbf;fill-opacity:1;stroke:none;stroke-width:3.54617;stroke-opacity:1"
       id="rect100036"
       width="256"
       height="96"
       x="256"
       y="416" />
    <rect
       style="fill:#edddbf;fill-opacity:1;stroke:none;stroke-width:6.47438;stroke-opacity:1"
       id="rect100040"
       width="256"
       height="320"
       x="0"
       y="96" />
  </g>
  <g
     inkscape:groupmode="layer"
     id="layer4"
     inkscape:label="Ebene 4"
     style="display:inline;mix-blend-mode:normal">
    <path
       style="fill:none;fill-opacity:1;stroke:#000000;stroke-width:1;stroke-linecap:butt;stroke-linejoin:miter;stroke-miterlimit:4;stroke-dasharray:none;stroke-opacity:1"
       d="m -175.89184,379.01427 c 0.0945,0.5185 1.8386,2.1186 3.59238,2.14201 2.30887,0.0308 4.02008,-1.71562 4.09774,-3.96066 0.0627,-1.81337 -0.0229,-3.36131 0.007,-5.10468 0.032,-1.89254 -0.0263,-4.33623 0.0179,-7.71663 0.0306,-2.36688 0.0513,-4.74528 -0.25767,-4.8613 -0.31657,-0.11891 -0.95625,0.46659 -1.63169,1.12357 -0.53368,-0.0126 -1.08039,0.12945 -1.32948,0.0312 -0.30974,-0.97723 -0.69136,-2.01628 -1.01146,-1.49342 -0.41646,0.68024 -0.63319,1.365 -1.00817,1.86628 -0.48354,0.64638 -1.11271,1.0857 -1.54019,1.84491 -1.4537,2.58177 -3.96152,7.57444 -2.6472,8.62772 1.35381,1.08493 2.96679,-0.57848 4.84139,-1.94679 0.75787,-0.55318 1.01196,-0.52728 2.11205,-1.13428 1.48011,-0.81668 2.59526,-2.13376 2.59526,-2.13376"
       id="path1474"
       sodipodi:nodetypes="csssssccssssssc" />
    <text
       xml:space="preserve"
       style="font-size:34.0157px;line-height:1.25;font-family:'URW Gothic';-inkscape-font-specification:'URW Gothic'"
       x="-215.78017"
       y="373.87057"
       id="text16821"><tspan
         sodipodi:role="line"
         id="tspan16819"
         x="-215.78017"
         y="373.87057"
         rotate="0 0"
         style="font-style:normal;font-variant:normal;font-weight:normal;font-stretch:normal;font-family:'Liberation Mono';-inkscape-font-specification:'Liberation Mono'">g</tspan></text>
    <ellipse
       style="fill:#000000;fill-opacity:1;stroke-width:1.14315;stroke-miterlimit:4;stroke-dasharray:none"
       id="path55647"
       transform="rotate(27.563109)"
       ry="0.98792535"
       rx="0.57243127"
       cy="402.84396"
       cx="14.566668" />
    <path
       style="color:#000000;fill:#000000;-inkscape-stroke:none"
       d="m -167.48836,387.78839 c -0.86557,1.22056 -2.00563,2.75202 -2.66659,4.49841 -0.51495,1.46945 -1.21575,2.86776 -0.40788,4.0719 0.23215,0.18604 0.75724,-0.003 0.95795,0.0538 0.21091,0.0594 0.40745,0.51925 0.60331,0.47751 1.63975,-0.34945 4.72581,-2.0449 6.20808,-3.37751 0.85603,-0.64359 1.0895,-0.9902 1.65618,-1.4437 0.004,1.6178 0.056,3.82429 0.037,4.94929 -0.0303,1.7648 -0.0128,3.50958 -0.0493,5.29812 -0.0206,1.00962 -0.78944,3.37238 -2.90757,3.35529 -1.36954,-0.011 -2.30993,-1.01212 -3.04808,-2.13346 l -1.79127,0.35367 c 0.73388,1.75489 2.43484,2.60982 4.34216,2.76072 2.61965,0.0342 4.81632,-2.59675 4.86049,-4.28809 0.11118,-4.2567 0.0266,-8.99945 0.0188,-13.08929 0.0153,-1.18414 0.003,-2.17198 -0.0155,-3.29952 -0.0181,-1.12755 -0.0886,-1.85007 -0.30942,-1.97553 -0.28357,-0.0283 -0.94687,0.34294 -1.12434,0.41784 -0.62494,0.31803 -1.13542,0.79461 -1.46776,1.19554 -0.13932,0.0332 -0.30568,0.0888 -0.62062,0.073 -0.38273,-0.0193 -0.43691,-0.0868 -0.59069,-0.13997 -0.0247,-0.8035 -0.73507,-2.55153 -1.39803,-2.17602 -0.17343,0.0982 0.0398,1.08642 -0.56177,2.05436 -0.6,0.96539 -1.10179,1.51736 -1.72515,2.36364 z m 3.40418,-1.46657 c 0.17817,0.23974 1.63678,0.23874 1.67308,0.13962 0.34458,-0.94078 1.13566,-1.55065 1.23296,-1.50855 0.13831,0.0598 0.11202,3.0657 0.0954,4.35084 -0.0104,0.79456 0.0632,1.31167 -0.14554,1.91397 -0.0921,0.2657 -1.27912,0.9879 -1.73304,1.30335 -0.69683,0.48428 -1.11144,0.71803 -1.77186,1.13619 -1.00425,0.63587 -1.32789,0.58235 -2.06046,0.99211 -0.77541,0.35512 -1.45819,0.62811 -1.86388,0.61155 -0.17561,-0.007 -0.19039,-0.22002 -0.31917,-0.25246 -0.24786,-0.0624 -0.51693,0.0425 -0.51068,-0.27429 0.0343,-2.24685 1.43913,-4.39293 2.54596,-6.37291 0.36503,-0.6483 1.02373,-1.63311 1.48593,-2.41304 0.21539,-0.36344 0.60866,-1.25396 0.74378,-1.23856 0.36853,0.042 0.59254,1.11157 0.62749,1.61217 z"
       id="path70751"
       sodipodi:nodetypes="cccsscsccssccssccccscssccssccsscssccsscc" />
    <ellipse
       style="fill:#000000;fill-opacity:1;stroke-width:1.14315;stroke-miterlimit:4;stroke-dasharray:none"
       id="ellipse70753"
       transform="rotate(27.563109)"
       ry="0.98792535"
       rx="0.57243127"
       cy="421.43613"
       cx="32.837158" />
    <g
       id="g101597"
       transform="matrix(1.7969942,0,0,1.7969942,-230.55238,-190.26657)"
       style="fill:#4b3f32;fill-opacity:1;stroke-width:0.999979;stroke-miterlimit:4;stroke-dasharray:none">
      <path
         style="color:#000000;fill:#4b3f32;fill-opacity:1;stroke-width:0.999979;stroke-miterlimit:4;stroke-dasharray:none"
         d="m 195.10014,200.75867 c -5.78526,8.15793 -13.40514,18.39383 -17.82284,30.06628 -3.4418,9.82145 -8.12578,19.16741 -2.72617,27.2156 1.55163,1.24344 5.06121,-0.0201 6.4027,0.35958 1.40968,0.39702 2.7233,3.47054 4.03238,3.19156 10.95969,-2.33564 31.58617,-13.66761 41.4933,-22.57446 5.7215,-4.3016 7.28196,-6.61825 11.06951,-9.64934 0.0267,10.81299 0.37429,25.56063 0.2473,33.07986 -0.20252,11.79549 -0.0855,23.45718 -0.32951,35.41135 -0.13769,6.74805 -5.27643,22.54017 -19.43349,22.42595 -9.15368,-0.0735 -15.43902,-6.76477 -20.37263,-14.25954 l -11.97242,2.36385 c 4.90508,11.72926 16.27388,17.44342 29.02195,18.45198 17.5091,0.2286 32.19111,-17.35605 32.48634,-28.66055 0.7431,-28.45075 0.17778,-60.15015 0.12565,-87.48565 0.10226,-7.9145 0.02,-14.51698 -0.1036,-22.05319 -0.12097,-7.53627 -0.59218,-12.36542 -2.06809,-13.20396 -1.89531,-0.18915 -6.32865,2.29212 -7.51481,2.79274 -4.17695,2.12563 -7.58887,5.31098 -9.81015,7.9907 -0.93118,0.2219 -2.0431,0.59352 -4.14808,0.48791 -2.55807,-0.12899 -2.9202,-0.58015 -3.94803,-0.93552 -0.16509,-5.3704 -4.91303,-17.05381 -9.34409,-14.54399 -1.15916,0.65634 0.26601,7.26136 -3.75473,13.73084 -4.01026,6.45243 -7.3641,10.14167 -11.53049,15.798 z m 22.75272,-9.8022 c 1.19084,1.60236 10.93983,1.59568 11.18246,0.93319 2.30309,-6.28795 7.59047,-10.36417 8.2408,-10.08279 0.92443,0.39969 0.74872,20.4904 0.63763,29.07997 -0.0695,5.31064 0.42241,8.76688 -0.97275,12.79251 -0.61557,1.77587 -8.54933,6.60288 -11.58322,8.71127 -4.65744,3.23681 -7.4286,4.79914 -11.84268,7.59402 -6.71217,4.25 -8.8753,3.89229 -13.77162,6.63102 -5.18265,2.37354 -9.74619,4.19814 -12.45772,4.08746 -1.17374,-0.0468 -1.27252,-1.47057 -2.13326,-1.68739 -1.65663,-0.41706 -3.45503,0.28406 -3.41326,-1.83328 0.22926,-15.0174 9.6188,-29.36128 17.01658,-42.59499 2.43977,-4.33308 6.84237,-10.91531 9.9316,-16.12818 1.43961,-2.42914 4.06814,-8.38116 4.97124,-8.27823 2.46317,0.28072 3.9604,7.42946 4.194,10.77535 z"
         id="path101593"
         sodipodi:nodetypes="cccsscsccssccssccccscssccssccsscssccsscc" />
      <ellipse
         style="fill:#4b3f32;fill-opacity:1;stroke-width:0.999979;stroke-miterlimit:4;stroke-dasharray:none"
         id="ellipse101595"
         transform="rotate(27.563109)"
         ry="6.6030536"
         rx="3.8259916"
         cy="88.764313"
         cx="278.39389" />
    </g>
    <g
       id="g101891"
       transform="matrix(1.7969942,0,0,1.7969942,-10.874211,-190.26657)"
       style="fill:#edddbf;fill-opacity:1;stroke-width:0.999979;stroke-miterlimit:4;stroke-dasharray:none">
      <path
         style="color:#000000;fill:#edddbf;fill-opacity:1;stroke-width:0.999979;stroke-miterlimit:4;stroke-dasharray:none"
         d="m 195.10014,200.75867 c -5.78526,8.15793 -13.40514,18.39383 -17.82284,30.06628 -3.4418,9.82145 -8.12578,19.16741 -2.72617,27.2156 1.55163,1.24344 5.06121,-0.0201 6.4027,0.35958 1.40968,0.39702 2.7233,3.47054 4.03238,3.19156 10.95969,-2.33564 31.58617,-13.66761 41.4933,-22.57446 5.7215,-4.3016 7.28196,-6.61825 11.06951,-9.64934 0.0267,10.81299 0.37429,25.56063 0.2473,33.07986 -0.20252,11.79549 -0.0855,23.45718 -0.32951,35.41135 -0.13769,6.74805 -5.27643,22.54017 -19.43349,22.42595 -9.15368,-0.0735 -15.43902,-6.76477 -20.37263,-14.25954 l -11.97242,2.36385 c 4.90508,11.72926 16.27388,17.44342 29.02195,18.45198 17.5091,0.2286 32.19111,-17.35605 32.48634,-28.66055 0.7431,-28.45075 0.17778,-60.15015 0.12565,-87.48565 0.10226,-7.9145 0.02,-14.51698 -0.1036,-22.05319 -0.12097,-7.53627 -0.59218,-12.36542 -2.06809,-13.20396 -1.89531,-0.18915 -6.32865,2.29212 -7.51481,2.79274 -4.17695,2.12563 -7.58887,5.31098 -9.81015,7.9907 -0.93118,0.2219 -2.0431,0.59352 -4.14808,0.48791 -2.55807,-0.12899 -2.9202,-0.58015 -3.94803,-0.93552 -0.16509,-5.3704 -4.91303,-17.05381 -9.34409,-14.54399 -1.15916,0.65634 0.26601,7.26136 -3.75473,13.73084 -4.01026,6.45243 -7.3641,10.14167 -11.53049,15.798 z m 22.75272,-9.8022 c 1.19084,1.60236 10.93983,1.59568 11.18246,0.93319 2.30309,-6.28795 7.59047,-10.36417 8.2408,-10.08279 0.92443,0.39969 0.74872,20.4904 0.63763,29.07997 -0.0695,5.31064 0.42241,8.76688 -0.97275,12.79251 -0.61557,1.77587 -8.54933,6.60288 -11.58322,8.71127 -4.65744,3.23681 -7.4286,4.79914 -11.84268,7.59402 -6.71217,4.25 -8.8753,3.89229 -13.77162,6.63102 -5.18265,2.37354 -9.74619,4.19814 -12.45772,4.08746 -1.17374,-0.0468 -1.27252,-1.47057 -2.13326,-1.68739 -1.65663,-0.41706 -3.45503,0.28406 -3.41326,-1.83328 0.22926,-15.0174 9.6188,-29.36128 17.01658,-42.59499 2.43977,-4.33308 6.84237,-10.91531 9.9316,-16.12818 1.43961,-2.42914 4.06814,-8.38116 4.97124,-8.27823 2.46317,0.28072 3.9604,7.42946 4.194,10.77535 z"
         id="path101887"
         sodipodi:nodetypes="cccsscsccssccssccccscssccssccsscssccsscc" />
      <ellipse
         style="fill:#edddbf;fill-opacity:1;stroke-width:0.999979;stroke-miterlimit:4;stroke-dasharray:none"
         id="ellipse101889"
         transform="rotate(27.563109)"
         ry="6.6030536"
         rx="3.8259916"
         cy="88.764313"
         cx="278.39389" />
    </g>
  </g>
</svg>
